<svg width="312" height="112" viewBox="0 0 312 112" fill="none" xmlns="http://www.w3.org/2000/svg">
<g filter="url(#filter0_d_8_219)">
<mask id="mask0_8_219" style="mask-type:alpha" maskUnits="userSpaceOnUse" x="6" y="6" width="300" height="100">
<path d="M6 6.5261H20.1782L44.99 79.1278L42.8379 78.2071L60.9404 29.543L66.637 46.7727L42.4582 105.433L6 6.5261ZM49.927 6.5261H62.2063L89.0436 78.0756L86.5118 77.5495L110.184 6.5261H123.223L87.2713 105.301L49.927 6.5261Z" fill="#393939"/>
<path d="M141.555 101.092V6H166.493C175.524 6 183.203 7.44677 189.533 10.3403C195.947 13.2339 201.095 17.0481 204.977 21.783C208.859 26.5179 211.686 31.7789 213.459 37.566C215.315 43.2654 216.244 48.9648 216.244 54.6642C216.244 61.8542 215.02 68.2989 212.573 73.9984C210.209 79.6978 206.918 84.5642 202.698 88.5976C198.479 92.631 193.626 95.7438 188.14 97.9359C182.739 100.04 177 101.092 170.924 101.092H141.555ZM153.834 88.8607H168.519C173.583 88.8607 178.224 88.0715 182.444 86.4932C186.748 84.9149 190.461 82.6352 193.584 79.6539C196.791 76.6727 199.28 73.0338 201.053 68.7374C202.825 64.3532 203.711 59.3991 203.711 53.8751C203.711 48.0003 202.783 42.8708 200.926 38.4866C199.069 34.0148 196.538 30.2883 193.331 27.307C190.124 24.3258 186.495 22.0899 182.444 20.5993C178.393 19.021 174.131 18.2318 169.658 18.2318H153.834V88.8607Z" fill="#393939"/>
<path d="M98.7991 95.889C98.7991 94.8697 99.0285 93.949 99.4874 93.127C99.9621 92.305 100.611 91.6556 101.434 91.1788C102.257 90.702 103.19 90.4636 104.235 90.4636C105.311 90.4636 106.252 90.702 107.059 91.1788C107.866 91.6556 108.491 92.305 108.934 93.127C109.377 93.949 109.599 94.8697 109.599 95.889C109.599 96.9084 109.377 97.8372 108.934 98.6757C108.491 99.4978 107.858 100.147 107.035 100.624C106.228 101.101 105.287 101.339 104.211 101.339C103.166 101.339 102.233 101.117 101.41 100.673C100.603 100.213 99.9621 99.58 99.4874 98.7744C99.0285 97.9523 98.7991 96.9906 98.7991 95.889ZM101.007 95.9137C101.007 96.5713 101.149 97.1714 101.434 97.7139C101.719 98.24 102.098 98.6593 102.573 98.9717C103.064 99.284 103.602 99.4402 104.187 99.4402C104.804 99.4402 105.35 99.284 105.825 98.9717C106.315 98.6593 106.695 98.24 106.964 97.7139C107.233 97.1714 107.368 96.5713 107.368 95.9137C107.368 95.2561 107.233 94.6642 106.964 94.1381C106.695 93.5956 106.315 93.1681 105.825 92.8557C105.35 92.5269 104.804 92.3625 104.187 92.3625C103.586 92.3625 103.04 92.5269 102.549 92.8557C102.075 93.1846 101.695 93.6202 101.41 94.1628C101.141 94.6889 101.007 95.2725 101.007 95.9137Z" fill="#393939"/>
<path d="M114.558 90.8829L114.771 93.8422L114.653 93.4476C114.906 92.8229 115.27 92.2968 115.745 91.8693C116.235 91.4254 116.741 91.0884 117.264 90.8582C117.802 90.6116 118.268 90.4883 118.664 90.4883L118.545 92.7571C117.802 92.7078 117.145 92.8557 116.575 93.201C116.021 93.5463 115.578 94.0066 115.246 94.582C114.93 95.1574 114.771 95.774 114.771 96.4316V101.092H112.588V90.8829H114.558Z" fill="#393939"/>
<path d="M125.082 101.339C124.18 101.339 123.357 101.117 122.614 100.673C121.886 100.213 121.308 99.5717 120.881 98.7497C120.454 97.9112 120.24 96.9495 120.24 95.8644C120.24 94.73 120.462 93.76 120.905 92.9544C121.364 92.1488 121.981 91.5323 122.756 91.1048C123.531 90.6774 124.402 90.4636 125.367 90.4636C126.142 90.4636 126.878 90.6363 127.574 90.9815C128.287 91.3268 128.84 91.8035 129.236 92.4118L129.141 93.2257V82.0049H131.325V101.092H129.117V98.5524L129.355 99.1936C128.896 99.8183 128.302 100.336 127.574 100.747C126.847 101.142 126.016 101.339 125.082 101.339ZM125.771 99.3909C126.356 99.3909 126.878 99.284 127.337 99.0703C127.796 98.8401 128.176 98.5278 128.476 98.1332C128.777 97.7386 128.991 97.27 129.117 96.7275V94.804C128.991 94.3107 128.761 93.8833 128.429 93.5216C128.112 93.1435 127.725 92.8475 127.266 92.6338C126.823 92.4036 126.324 92.2885 125.771 92.2885C125.169 92.2885 124.615 92.4447 124.109 92.7571C123.618 93.053 123.223 93.464 122.922 93.9901C122.622 94.5162 122.471 95.1245 122.471 95.8151C122.471 96.4891 122.622 97.0974 122.922 97.64C123.223 98.1661 123.626 98.5935 124.133 98.9223C124.639 99.2347 125.185 99.3909 125.771 99.3909Z" fill="#393939"/>
<path d="M216.354 90.8829H218.562V101.092H216.354V90.8829ZM216.188 87.1837C216.188 86.822 216.323 86.5179 216.592 86.2713C216.877 86.0247 217.185 85.9014 217.517 85.9014C217.85 85.9014 218.142 86.0247 218.396 86.2713C218.665 86.5179 218.799 86.822 218.799 87.1837C218.799 87.5619 218.665 87.8742 218.396 88.1208C218.142 88.351 217.85 88.4661 217.517 88.4661C217.185 88.4661 216.877 88.3428 216.592 88.0962C216.323 87.8496 216.188 87.5454 216.188 87.1837Z" fill="#393939"/>
<path d="M230.356 100.155C229.913 100.517 229.383 100.805 228.766 101.019C228.149 101.232 227.532 101.339 226.915 101.339C225.839 101.339 224.897 101.117 224.09 100.673C223.283 100.229 222.65 99.6128 222.191 98.8237C221.748 98.0181 221.527 97.0728 221.527 95.9877C221.527 94.9026 221.764 93.9573 222.239 93.1517C222.729 92.3461 223.362 91.7296 224.137 91.3021C224.929 90.8582 225.775 90.6363 226.677 90.6363C227.468 90.6363 228.173 90.7513 228.79 90.9815C229.423 91.2117 229.961 91.5241 230.404 91.9186L229.312 93.3983C229.027 93.1681 228.679 92.9626 228.268 92.7818C227.856 92.6009 227.389 92.5105 226.867 92.5105C226.297 92.5105 225.767 92.6667 225.277 92.979C224.802 93.275 224.422 93.686 224.137 94.2121C223.868 94.7382 223.734 95.3301 223.734 95.9877C223.734 96.6124 223.876 97.1961 224.161 97.7386C224.446 98.2647 224.842 98.6839 225.348 98.9963C225.854 99.2922 226.432 99.4402 227.081 99.4402C227.508 99.4402 227.896 99.3744 228.244 99.2429C228.608 99.1114 228.932 98.9305 229.217 98.7004L230.356 100.155Z" fill="#393939"/>
<path d="M234.155 86.3946H236.363V90.9322H239.069V92.7324H236.363V101.092H234.155V92.7324H232.351V90.9322H234.155V86.3946Z" fill="#393939"/>
<path d="M241.736 90.8829H243.943V101.092H241.736V90.8829ZM241.57 87.1837C241.57 86.822 241.704 86.5179 241.973 86.2713C242.258 86.0247 242.567 85.9014 242.899 85.9014C243.231 85.9014 243.524 86.0247 243.777 86.2713C244.046 86.5179 244.181 86.822 244.181 87.1837C244.181 87.5619 244.046 87.8742 243.777 88.1208C243.524 88.351 243.231 88.4661 242.899 88.4661C242.567 88.4661 242.258 88.3428 241.973 88.0962C241.704 87.8496 241.57 87.5454 241.57 87.1837Z" fill="#393939"/>
<path d="M246.908 95.889C246.908 94.8697 247.138 93.949 247.596 93.127C248.071 92.305 248.72 91.6556 249.543 91.1788C250.366 90.702 251.299 90.4636 252.344 90.4636C253.42 90.4636 254.361 90.702 255.168 91.1788C255.975 91.6556 256.6 92.305 257.043 93.127C257.486 93.949 257.708 94.8697 257.708 95.889C257.708 96.9084 257.486 97.8372 257.043 98.6757C256.6 99.4977 255.967 100.147 255.144 100.624C254.337 101.101 253.396 101.339 252.32 101.339C251.275 101.339 250.342 101.117 249.519 100.673C248.712 100.213 248.071 99.58 247.596 98.7744C247.138 97.9523 246.908 96.9906 246.908 95.889ZM249.116 95.9137C249.116 96.5713 249.258 97.1714 249.543 97.7139C249.828 98.24 250.207 98.6593 250.682 98.9716C251.173 99.284 251.711 99.4402 252.296 99.4402C252.913 99.4402 253.459 99.284 253.934 98.9716C254.424 98.6593 254.804 98.24 255.073 97.7139C255.342 97.1714 255.477 96.5713 255.477 95.9137C255.477 95.2561 255.342 94.6642 255.073 94.1381C254.804 93.5956 254.424 93.1681 253.934 92.8557C253.459 92.5269 252.913 92.3625 252.296 92.3625C251.695 92.3625 251.149 92.5269 250.658 92.8557C250.184 93.1846 249.804 93.6202 249.519 94.1628C249.25 94.6889 249.116 95.2725 249.116 95.9137Z" fill="#393939"/>
<path d="M262.667 90.8829L262.857 93.3736L262.762 92.979C263.078 92.2228 263.592 91.6227 264.305 91.1788C265.017 90.7185 265.839 90.4883 266.773 90.4883C267.707 90.4883 268.466 90.776 269.052 91.3514C269.653 91.9104 269.962 92.642 269.977 93.5462V101.092H267.746V94.3601C267.73 93.8011 267.572 93.349 267.272 93.0037C266.987 92.642 266.536 92.4612 265.919 92.4612C265.349 92.4612 264.835 92.6256 264.376 92.9544C263.917 93.2832 263.553 93.7353 263.284 94.3107C263.031 94.8862 262.904 95.552 262.904 96.3083V101.092H260.697V90.8829H262.667Z" fill="#393939"/>
<path d="M277.899 101.339C276.981 101.339 276.142 101.134 275.383 100.723C274.639 100.312 274.046 99.7115 273.603 98.9223C273.175 98.1167 272.962 97.1385 272.962 95.9877C272.962 94.8533 273.191 93.8751 273.65 93.053C274.109 92.2146 274.718 91.5734 275.478 91.1295C276.253 90.6856 277.1 90.4636 278.018 90.4636C278.935 90.4636 279.711 90.6856 280.344 91.1295C280.977 91.5569 281.459 92.0666 281.792 92.6585L281.649 93.053L281.863 90.8829H283.904V101.092H281.697V98.4291L281.934 99.021C281.871 99.1854 281.728 99.3991 281.507 99.6622C281.301 99.9088 281.016 100.164 280.652 100.427C280.304 100.69 279.901 100.912 279.442 101.092C278.983 101.257 278.469 101.339 277.899 101.339ZM278.492 99.4402C279.046 99.4402 279.545 99.3333 279.988 99.1196C280.431 98.9059 280.795 98.61 281.079 98.2318C281.38 97.8372 281.586 97.3687 281.697 96.8262V94.8286C281.57 94.3354 281.348 93.9079 281.032 93.5462C280.715 93.1681 280.336 92.8804 279.893 92.6831C279.45 92.4694 278.959 92.3625 278.421 92.3625C277.836 92.3625 277.298 92.5105 276.807 92.8064C276.316 93.1024 275.921 93.5134 275.62 94.0395C275.335 94.5656 275.193 95.1821 275.193 95.889C275.193 96.5467 275.343 97.1467 275.644 97.6893C275.945 98.2318 276.348 98.6593 276.854 98.9716C277.361 99.284 277.907 99.4402 278.492 99.4402Z" fill="#393939"/>
<path d="M289.694 90.8829L289.908 93.8422L289.789 93.4476C290.042 92.8229 290.406 92.2968 290.881 91.8693C291.371 91.4254 291.878 91.0884 292.4 90.8582C292.938 90.6116 293.405 90.4883 293.8 90.4883L293.682 92.7571C292.938 92.7078 292.281 92.8557 291.712 93.201C291.158 93.5462 290.715 94.0066 290.382 94.582C290.066 95.1574 289.908 95.774 289.908 96.4316V101.092H287.724V90.8829H289.694Z" fill="#393939"/>
<path d="M297.479 106L303.959 90.8829H306L299.663 106H297.479ZM299.9 101.166L295.176 90.8829H297.669L301.633 100.007L299.9 101.166Z" fill="#393939"/>
</mask>
<g mask="url(#mask0_8_219)">
<rect x="-61.4966" y="-39.6802" width="469.771" height="95.561" fill="#D9D9D9"/>
</g>
<mask id="mask1_8_219" style="mask-type:alpha" maskUnits="userSpaceOnUse" x="6" y="6" width="300" height="100">
<path d="M6 6.5291H20.1782L44.99 79.545L42.8379 78.619L60.9404 29.6772L66.637 47.0053L42.4582 106L6 6.5291ZM49.927 6.5291H62.2063L89.0436 78.4868L86.5118 77.9577L110.184 6.5291H123.223L87.2713 105.868L49.927 6.5291Z" fill="#393939"/>
<path d="M141.555 101.635V6H166.493C175.524 6 183.203 7.45503 189.533 10.3651C195.947 13.2751 201.095 17.1111 204.977 21.873C208.859 26.6349 211.686 31.9259 213.459 37.746C215.315 43.478 216.244 49.2099 216.244 54.9418C216.244 62.1728 215.02 68.6543 212.572 74.3862C210.209 80.1182 206.918 85.0123 202.698 89.0688C198.479 93.1252 193.626 96.2557 188.14 98.4603C182.739 100.577 177 101.635 170.924 101.635H141.555ZM153.834 89.3333H168.519C173.583 89.3333 178.224 88.5397 182.444 86.9524C186.748 85.3651 190.461 83.0723 193.584 80.0741C196.791 77.0758 199.28 73.4162 201.053 69.0952C202.825 64.6861 203.711 59.7037 203.711 54.1481C203.711 48.2399 202.783 43.0811 200.926 38.672C199.069 34.1746 196.538 30.4268 193.331 27.4286C190.124 24.4303 186.495 22.1817 182.444 20.6825C178.393 19.0952 174.131 18.3016 169.658 18.3016H153.834V89.3333Z" fill="#393939"/>
<path d="M98.7991 94.3282C98.7991 93.303 99.0285 92.3771 99.4874 91.5504C99.9621 90.7237 100.611 90.0706 101.434 89.5911C102.257 89.1116 103.19 88.8718 104.235 88.8718C105.311 88.8718 106.252 89.1116 107.059 89.5911C107.866 90.0706 108.491 90.7237 108.934 91.5504C109.377 92.3771 109.599 93.303 109.599 94.3282C109.599 95.3533 109.377 96.2875 108.934 97.1308C108.491 97.9575 107.858 98.6106 107.035 99.0901C106.228 99.5696 105.287 99.8093 104.211 99.8093C103.166 99.8093 102.233 99.5861 101.41 99.1397C100.603 98.6767 99.9621 98.0401 99.4874 97.23C99.0285 96.4032 98.7991 95.436 98.7991 94.3282ZM101.007 94.353C101.007 95.0144 101.149 95.6179 101.434 96.1635C101.719 96.6926 102.098 97.1142 102.573 97.4284C103.064 97.7425 103.602 97.8996 104.187 97.8996C104.804 97.8996 105.35 97.7425 105.825 97.4284C106.315 97.1142 106.695 96.6926 106.964 96.1635C107.233 95.6179 107.368 95.0144 107.368 94.353C107.368 93.6916 107.233 93.0964 106.964 92.5673C106.695 92.0216 106.315 91.5917 105.825 91.2776C105.35 90.9469 104.804 90.7816 104.187 90.7816C103.586 90.7816 103.04 90.9469 102.549 91.2776C102.075 91.6083 101.695 92.0464 101.41 92.5921C101.141 93.1212 101.007 93.7081 101.007 94.353Z" fill="#393939"/>
<path d="M114.558 89.2935L114.771 92.2696L114.653 91.8728C114.906 91.2445 115.27 90.7154 115.745 90.2855C116.235 89.8391 116.741 89.5001 117.264 89.2687C117.802 89.0206 118.268 88.8966 118.664 88.8966L118.545 91.1784C117.802 91.1288 117.145 91.2776 116.575 91.6248C116.021 91.972 115.578 92.435 115.246 93.0137C114.93 93.5924 114.771 94.2124 114.771 94.8738V99.5613H112.588V89.2935H114.558Z" fill="#393939"/>
<path d="M125.082 99.8093C124.18 99.8093 123.357 99.5861 122.614 99.1397C121.886 98.6767 121.308 98.0319 120.881 97.2052C120.454 96.3619 120.24 95.3946 120.24 94.3034C120.24 93.1625 120.462 92.187 120.905 91.3768C121.364 90.5666 121.981 89.9466 122.756 89.5167C123.531 89.0868 124.402 88.8718 125.367 88.8718C126.142 88.8718 126.878 89.0454 127.574 89.3927C128.287 89.7399 128.84 90.2194 129.236 90.8312L129.141 91.6496V80.3649H131.325V99.5613H129.117V97.0067L129.355 97.6516C128.896 98.2799 128.302 98.8007 127.574 99.2141C126.847 99.6109 126.016 99.8093 125.082 99.8093ZM125.771 97.85C126.356 97.85 126.878 97.7425 127.337 97.5276C127.796 97.2961 128.176 96.9819 128.476 96.5851C128.777 96.1883 128.991 95.7171 129.117 95.1714V93.2369C128.991 92.7409 128.761 92.311 128.429 91.9472C128.112 91.5669 127.725 91.2693 127.266 91.0544C126.823 90.8229 126.324 90.7071 125.771 90.7071C125.169 90.7071 124.615 90.8642 124.109 91.1784C123.618 91.476 123.223 91.8894 122.922 92.4185C122.622 92.9476 122.471 93.5593 122.471 94.2538C122.471 94.9317 122.622 95.5435 122.922 96.0891C123.223 96.6182 123.626 97.0481 124.133 97.3788C124.639 97.6929 125.185 97.85 125.771 97.85Z" fill="#393939"/>
<path d="M216.354 89.2935H218.562V99.5613H216.354V89.2935ZM216.188 85.5732C216.188 85.2095 216.323 84.9036 216.592 84.6556C216.877 84.4075 217.185 84.2835 217.517 84.2835C217.85 84.2835 218.142 84.4075 218.396 84.6556C218.665 84.9036 218.799 85.2095 218.799 85.5732C218.799 85.9535 218.665 86.2677 218.396 86.5157C218.142 86.7472 217.85 86.8629 217.517 86.8629C217.185 86.8629 216.877 86.7389 216.592 86.4909C216.323 86.2429 216.188 85.937 216.188 85.5732Z" fill="#393939"/>
<path d="M230.356 98.6189C229.913 98.9826 229.383 99.272 228.766 99.4869C228.149 99.7019 227.532 99.8093 226.915 99.8093C225.839 99.8093 224.897 99.5861 224.09 99.1397C223.283 98.6933 222.65 98.0732 222.191 97.2796C221.748 96.4694 221.527 95.5187 221.527 94.4274C221.527 93.3361 221.764 92.3854 222.239 91.5752C222.729 90.765 223.362 90.145 224.137 89.7151C224.929 89.2687 225.775 89.0454 226.677 89.0454C227.468 89.0454 228.173 89.1612 228.79 89.3927C229.423 89.6241 229.961 89.9383 230.404 90.3351L229.312 91.8232C229.027 91.5917 228.679 91.3851 228.268 91.2032C227.856 91.0213 227.389 90.9304 226.867 90.9304C226.297 90.9304 225.767 91.0874 225.277 91.4016C224.802 91.6992 224.422 92.1126 224.137 92.6417C223.868 93.1708 223.734 93.766 223.734 94.4274C223.734 95.0557 223.876 95.6427 224.161 96.1883C224.446 96.7174 224.842 97.139 225.348 97.4532C225.854 97.7508 226.432 97.8996 227.081 97.8996C227.508 97.8996 227.896 97.8335 228.244 97.7012C228.608 97.5689 228.932 97.387 229.217 97.1556L230.356 98.6189Z" fill="#393939"/>
<path d="M234.155 84.7796H236.363V89.3431H239.069V91.1536H236.363V99.5613H234.155V91.1536H232.351V89.3431H234.155V84.7796Z" fill="#393939"/>
<path d="M241.736 89.2935H243.943V99.5613H241.736V89.2935ZM241.57 85.5732C241.57 85.2095 241.704 84.9036 241.973 84.6556C242.258 84.4075 242.567 84.2835 242.899 84.2835C243.231 84.2835 243.524 84.4075 243.777 84.6556C244.046 84.9036 244.181 85.2095 244.181 85.5732C244.181 85.9535 244.046 86.2677 243.777 86.5157C243.524 86.7472 243.231 86.8629 242.899 86.8629C242.567 86.8629 242.258 86.7389 241.973 86.4909C241.704 86.2429 241.57 85.937 241.57 85.5732Z" fill="#393939"/>
<path d="M246.908 94.3282C246.908 93.303 247.138 92.3771 247.596 91.5504C248.071 90.7237 248.72 90.0706 249.543 89.5911C250.366 89.1116 251.299 88.8718 252.344 88.8718C253.42 88.8718 254.361 89.1116 255.168 89.5911C255.975 90.0706 256.6 90.7237 257.043 91.5504C257.486 92.3771 257.708 93.303 257.708 94.3282C257.708 95.3533 257.486 96.2875 257.043 97.1308C256.6 97.9575 255.967 98.6106 255.144 99.0901C254.337 99.5696 253.396 99.8093 252.32 99.8093C251.275 99.8093 250.342 99.5861 249.519 99.1397C248.712 98.6767 248.071 98.0402 247.596 97.23C247.138 96.4032 246.908 95.436 246.908 94.3282ZM249.116 94.353C249.116 95.0144 249.258 95.6179 249.543 96.1635C249.828 96.6926 250.207 97.1142 250.682 97.4284C251.173 97.7425 251.711 97.8996 252.296 97.8996C252.913 97.8996 253.459 97.7425 253.934 97.4284C254.424 97.1142 254.804 96.6926 255.073 96.1635C255.342 95.6179 255.477 95.0144 255.477 94.353C255.477 93.6916 255.342 93.0964 255.073 92.5673C254.804 92.0216 254.424 91.5917 253.934 91.2776C253.459 90.9469 252.913 90.7816 252.296 90.7816C251.695 90.7816 251.149 90.9469 250.658 91.2776C250.184 91.6083 249.804 92.0464 249.519 92.5921C249.25 93.1212 249.116 93.7081 249.116 94.353Z" fill="#393939"/>
<path d="M262.667 89.2935L262.857 91.7984L262.762 91.4016C263.078 90.641 263.592 90.0375 264.305 89.5911C265.017 89.1281 265.839 88.8966 266.773 88.8966C267.707 88.8966 268.466 89.186 269.052 89.7647C269.653 90.3269 269.962 91.0626 269.977 91.972V99.5613H267.746V92.7905C267.73 92.2283 267.572 91.7736 267.272 91.4264C266.987 91.0626 266.536 90.8808 265.919 90.8808C265.349 90.8808 264.835 91.0461 264.376 91.3768C263.917 91.7075 263.553 92.1622 263.284 92.7409C263.031 93.3196 262.904 93.9892 262.904 94.7498V99.5613H260.697V89.2935H262.667Z" fill="#393939"/>
<path d="M277.899 99.8093C276.981 99.8093 276.142 99.6027 275.383 99.1893C274.639 98.7759 274.046 98.1724 273.603 97.3788C273.175 96.5686 272.962 95.5848 272.962 94.4274C272.962 93.2865 273.191 92.3027 273.65 91.476C274.109 90.6327 274.718 89.9879 275.478 89.5415C276.253 89.095 277.1 88.8718 278.018 88.8718C278.935 88.8718 279.711 89.095 280.344 89.5415C280.977 89.9714 281.459 90.4839 281.792 91.0792L281.649 91.476L281.863 89.2935H283.904V99.5613H281.697V96.8827L281.934 97.478C281.871 97.6433 281.728 97.8583 281.507 98.1228C281.301 98.3708 281.016 98.6271 280.652 98.8917C280.304 99.1562 279.901 99.3794 279.442 99.5613C278.983 99.7267 278.469 99.8093 277.899 99.8093ZM278.492 97.8996C279.046 97.8996 279.545 97.7921 279.988 97.5772C280.431 97.3622 280.795 97.0646 281.079 96.6843C281.38 96.2875 281.586 95.8163 281.697 95.2706V93.2617C281.57 92.7657 281.348 92.3358 281.032 91.972C280.715 91.5917 280.336 91.3024 279.893 91.104C279.45 90.889 278.959 90.7816 278.421 90.7816C277.836 90.7816 277.298 90.9304 276.807 91.228C276.316 91.5256 275.921 91.939 275.62 92.4681C275.335 92.9972 275.193 93.6172 275.193 94.3282C275.193 94.9896 275.343 95.5931 275.644 96.1387C275.945 96.6843 276.348 97.1142 276.854 97.4284C277.361 97.7425 277.907 97.8996 278.492 97.8996Z" fill="#393939"/>
<path d="M289.694 89.2935L289.908 92.2697L289.789 91.8728C290.042 91.2445 290.406 90.7154 290.881 90.2855C291.371 89.8391 291.878 89.5001 292.4 89.2687C292.938 89.0206 293.405 88.8966 293.8 88.8966L293.682 91.1784C292.938 91.1288 292.281 91.2776 291.712 91.6248C291.158 91.972 290.715 92.435 290.382 93.0137C290.066 93.5924 289.908 94.2124 289.908 94.8738V99.5613H287.724V89.2935H289.694Z" fill="#393939"/>
<path d="M297.479 104.497L303.959 89.2935H306L299.663 104.497H297.479ZM299.9 99.6357L295.176 89.2935H297.669L301.633 98.47L299.9 99.6357Z" fill="#393939"/>
</mask>
<g mask="url(#mask1_8_219)">
<path d="M-82.0201 46.2111H387.751V142.317H-82.0201V46.2111Z" fill="black"/>
</g>
</g>
<defs>
<filter id="filter0_d_8_219" x="0" y="0" width="312" height="112" filterUnits="userSpaceOnUse" color-interpolation-filters="sRGB">
<feFlood flood-opacity="0" result="BackgroundImageFix"/>
<feColorMatrix in="SourceAlpha" type="matrix" values="0 0 0 0 0 0 0 0 0 0 0 0 0 0 0 0 0 0 127 0" result="hardAlpha"/>
<feOffset/>
<feGaussianBlur stdDeviation="3"/>
<feComposite in2="hardAlpha" operator="out"/>
<feColorMatrix type="matrix" values="0 0 0 0 0 0 0 0 0 0 0 0 0 0 0 0 0 0 0.25 0"/>
<feBlend mode="normal" in2="BackgroundImageFix" result="effect1_dropShadow_8_219"/>
<feBlend mode="normal" in="SourceGraphic" in2="effect1_dropShadow_8_219" result="shape"/>
</filter>
</defs>
</svg>
